<svg xmlns="http://www.w3.org/2000/svg" viewBox="0 0 24 24" fill="none">
  <path
    d="M4.5 8.75c1.2-2.75 3.35-4.15 6.45-4.15 2.15 0 3.75.62 4.8 1.85.65.78 1.4 1.17 2.25 1.17.75 0 1.38-.25 1.9-.75-.72 2.75-2.42 4.12-5.1 4.12-1.52 0-2.75-.39-3.7-1.17-.95-.78-1.9-1.17-2.85-1.17-1.37 0-2.62.7-3.75 2.1Zm0 5.75c1.2-2.75 3.35-4.15 6.45-4.15 2.15 0 3.75.62 4.8 1.85.65.78 1.4 1.17 2.25 1.17.75 0 1.38-.25 1.9-.75-.72 2.75-2.42 4.12-5.1 4.12-1.52 0-2.75-.39-3.7-1.17-.95-.78-1.9-1.17-2.85-1.17-1.37 0-2.62.7-3.75 2.1Z"
    stroke="currentColor"
    stroke-width="1.4"
    stroke-linecap="round"
    stroke-linejoin="round"
  />
  <path
    d="M12 3.25v2.2m0 13.1v2.2M3.25 12h2.2m13.1 0h2.2"
    stroke="currentColor"
    stroke-width="1.3"
    stroke-linecap="round"
  />
  <circle cx="12" cy="12" r="8.25" stroke="currentColor" stroke-width="1.35" opacity=".72" />
</svg>
